<svg id="Layer_1" data-name="Layer 1" xmlns="http://www.w3.org/2000/svg" viewBox="0 0 2000 2000"><defs><style>.cls-1{fill:#00296b;}.cls-2{fill:#ffd500;}</style></defs><rect class="cls-1" width="2000" height="2000"/><path class="cls-2" d="M1909.3,643.2V783.75H312.88v561.77H173.27V783.75H90.7V643.2Z"/><path class="cls-2" d="M746.64,1123q0,80.91-3.81,114.57A128.42,128.42,0,0,1,719,1299.1q-20.07,27.86-54.22,42.78t-79.59,14.92q-43.11,0-77.43-14.1t-55.21-42.28q-20.89-28.18-24.88-61.35t-4-116.06v-91.86q0-80.91,3.82-114.58a128.41,128.41,0,0,1,23.87-61.51q20.07-27.85,54.22-42.78t79.59-14.93q43.11,0,77.44,14.1t55.21,42.28q20.9,28.18,24.87,61.35t4,116.07ZM607,946.58q0-37.47-4.14-47.92t-17.08-10.44q-10.95,0-16.75,8.45t-5.8,49.91v250.71q0,46.76,3.81,57.7t17.74,10.94q14.25,0,18.24-12.6t4-60Z"/><path class="cls-2" d="M1110.43,808.63v536.89H988.06l-72.62-244.07v244.07H798.71V808.63H915.44l78.26,241.75V808.63Z"/><path class="cls-2" d="M1463.94,808.63l-101.81,342.56v194.33H1232.8V1151.19l-98.16-342.56h128.25q30.06,157.2,33.91,211.57,11.61-85.92,38.88-211.57Z"/><path class="cls-2" d="M1561.76,808.63v48.08q0,37.49-9,61.85t-31,41.12a124.52,124.52,0,0,1-49.9,22.72V943.6q19.89-11,22.54-29.85H1471.9V808.63Z"/><path class="cls-2" d="M1897.7,971.12H1768V931.33q0-27.86-5-35.48t-16.58-7.63q-12.62,0-19.07,10.29t-6.47,31.19q0,26.88,7.27,40.49,6.94,13.6,39.46,32.82,93.21,55.34,117.42,90.81t24.21,114.41q0,57.38-13.43,84.56t-51.9,45.6q-38.46,18.4-89.53,18.41-56.06,0-95.68-21.23t-51.9-54q-12.27-32.83-12.27-93.19v-35.15h129.67v65.33q0,30.18,5.47,38.8t19.4,8.62q13.93,0,20.73-10.94t6.8-32.5q0-47.41-12.94-62-13.26-14.6-65.33-48.75-52.07-34.49-69-50.07t-28-43.12q-11.12-27.51-11.11-70.3,0-61.68,15.76-90.2t50.9-44.6q35.14-16.08,84.89-16.09,54.39,0,92.69,17.58t50.74,44.27q12.43,26.7,12.44,90.7Z"/><path d="M1331.17,699.89a23.89,23.89,0,0,1,9.14-9.14,26,26,0,0,1,13-3.28,25.55,25.55,0,0,1,14.76,4.32,22.63,22.63,0,0,1,8.86,12h-11.6a12,12,0,0,0-4.86-5.4,14.23,14.23,0,0,0-7.23-1.8,14.85,14.85,0,0,0-7.81,2.05,14,14,0,0,0-5.33,5.79,21.09,21.09,0,0,0,0,17.54,14,14,0,0,0,5.33,5.83,14.85,14.85,0,0,0,7.81,2,14,14,0,0,0,7.23-1.84,12.17,12.17,0,0,0,4.86-5.43h11.6a22.47,22.47,0,0,1-8.82,12,27.58,27.58,0,0,1-27.8,1,24,24,0,0,1-9.14-9.1,28,28,0,0,1,0-26.54Z"/><path d="M1416.38,728.8h-20l-3.32,9.58h-10.58l18.07-50.33h11.74l18.07,50.33h-10.66Zm-2.73-8.06-7.28-21-7.27,21Z"/><path d="M1463,738.38,1452,718.79h-4.75v19.59h-10.08V688.12H1456a22.16,22.16,0,0,1,9.94,2,14.38,14.38,0,0,1,6.15,5.55,15.11,15.11,0,0,1,2,7.81,15,15,0,0,1-2.88,9,14.76,14.76,0,0,1-8.56,5.51l12,20.38Zm-15.84-27.15h8.42q4.11,0,6.12-2a7.37,7.37,0,0,0,2-5.5,7,7,0,0,0-2-5.37q-2-1.9-6.12-1.91h-8.42Z"/><path d="M1518,711.23a14,14,0,0,1-6,5.69,21.73,21.73,0,0,1-10.26,2.16h-8.42v19.3h-10.08V688.12h18.5a22.44,22.44,0,0,1,9.94,2,14,14,0,0,1,6.15,5.54,16.22,16.22,0,0,1,.15,15.55ZM1507.53,709a7,7,0,0,0,2-5.37q0-7.33-8.21-7.34h-8V711h8C1504.12,711,1506.19,710.31,1507.53,709Z"/><path d="M1537.12,696.26v12.6H1554v8h-16.92v13.32h19.08v8.21H1527V688.05h29.16v8.21Z"/><path d="M1599.55,688.12v8.14h-13.4v42.12h-10.08V696.26h-13.39v-8.14Z"/><path d="M1650,738.38l-11.09-19.59h-4.75v19.59H1624V688.12h18.86a22.16,22.16,0,0,1,9.94,2,14.38,14.38,0,0,1,6.15,5.55,15.11,15.11,0,0,1,2,7.81,15,15,0,0,1-2.88,9,14.76,14.76,0,0,1-8.56,5.51l12,20.38Zm-15.84-27.15h8.42q4.11,0,6.12-2a7.37,7.37,0,0,0,2-5.5,7,7,0,0,0-2-5.37q-2-1.9-6.12-1.91h-8.42Z"/><path d="M1680.26,696.26v12.6h16.92v8h-16.92v13.32h19.08v8.21h-29.16V688.05h29.16v8.21Z"/><path d="M1743.22,711.23a14,14,0,0,1-6,5.69,21.8,21.8,0,0,1-10.27,2.16h-8.42v19.3h-10.08V688.12H1727a22.44,22.44,0,0,1,9.94,2,14,14,0,0,1,6.16,5.54,16.26,16.26,0,0,1,.14,15.55ZM1732.75,709a7,7,0,0,0,2-5.37q0-7.33-8.21-7.34h-8V711h8C1729.34,711,1731.4,710.31,1732.75,709Z"/><path d="M1783.07,728.8h-20l-3.32,9.58h-10.58l18.07-50.33H1779L1797,738.38h-10.66Zm-2.73-8.06-7.28-21-7.27,21Z"/><path d="M1813.89,688.12v50.26h-10.08V688.12Z"/><path d="M1849.74,738.38l-11.08-19.59h-4.76v19.59h-10.08V688.12h18.87a22.08,22.08,0,0,1,9.93,2,14.35,14.35,0,0,1,6.16,5.55,15.11,15.11,0,0,1,2,7.81,15,15,0,0,1-2.88,9,14.79,14.79,0,0,1-8.57,5.51l12,20.38Zm-15.84-27.15h8.43q4.1,0,6.12-2a7.36,7.36,0,0,0,2-5.5,7,7,0,0,0-2-5.37q-2-1.9-6.12-1.91h-8.43Z"/></svg>