<?xml version="1.0" encoding="utf-8"?>
<!-- Generator: Adobe Illustrator 26.0.1, SVG Export Plug-In . SVG Version: 6.00 Build 0)  -->
<svg version="1.1" id="Layer_1" xmlns="http://www.w3.org/2000/svg" xmlns:xlink="http://www.w3.org/1999/xlink" x="0px" y="0px"
	 viewBox="0 0 2000 2000" style="enable-background:new 0 0 2000 2000;" xml:space="preserve">
<style type="text/css">
	.st0{fill:#00296B;}
	.st1{fill:#FFD500;}
</style>
<rect class="st0" width="2000" height="2000"/>
<g>
	<g>
		<path class="st1" d="M1909.3,643.2v140.55H312.88v561.77H173.27V783.75H90.7V643.2H1909.3z"/>
		<path class="st1" d="M746.64,1123.01c0,53.95-1.27,92.14-3.81,114.57c-2.54,22.44-10.5,42.95-23.88,61.52
			c-13.38,18.57-31.45,32.83-54.22,42.78c-22.77,9.95-49.3,14.92-79.59,14.92c-28.74,0-54.55-4.7-77.43-14.09
			c-22.88-9.39-41.29-23.49-55.21-42.28c-13.93-18.79-22.22-39.24-24.87-61.35c-2.65-22.1-3.98-60.79-3.98-116.07v-91.86
			c0-53.94,1.27-92.13,3.81-114.57c2.54-22.44,10.5-42.94,23.88-61.52c13.37-18.57,31.45-32.83,54.22-42.78
			c22.77-9.95,49.3-14.92,79.59-14.92c28.74,0,54.55,4.7,77.43,14.09c22.88,9.4,41.29,23.49,55.21,42.28
			c13.93,18.79,22.22,39.25,24.87,61.35c2.65,22.11,3.98,60.8,3.98,116.07V1123.01z M607.03,946.58c0-24.98-1.38-40.96-4.15-47.92
			c-2.77-6.96-8.46-10.45-17.08-10.45c-7.3,0-12.88,2.82-16.75,8.46c-3.87,5.64-5.8,22.28-5.8,49.91v250.71
			c0,31.17,1.27,50.41,3.81,57.7c2.54,7.3,8.46,10.94,17.74,10.94c9.5,0,15.59-4.2,18.24-12.6c2.65-8.4,3.98-28.41,3.98-60.02
			V946.58z"/>
		<path class="st1" d="M1110.43,808.63v536.89H988.06l-72.62-244.07v244.07H798.71V808.63h116.73l78.26,241.75V808.63H1110.43z"/>
		<path class="st1" d="M1463.94,808.63l-101.81,342.56v194.33H1232.8v-194.33l-98.16-342.56h128.25
			c20.04,104.8,31.34,175.32,33.91,211.57c7.74-57.28,20.7-127.81,38.88-211.57H1463.94z"/>
		<path class="st1" d="M1561.76,808.63v48.08c0,24.99-2.99,45.6-8.96,61.85c-5.97,16.25-16.31,29.96-31.01,41.12
			c-14.71,11.17-31.34,18.74-49.91,22.72v-38.8c13.26-7.3,20.78-17.24,22.55-29.85h-22.55V808.63H1561.76z"/>
		<path class="st1" d="M1897.7,971.12h-129.66v-39.79c0-18.57-1.66-30.4-4.97-35.48c-3.32-5.08-8.84-7.63-16.58-7.63
			c-8.4,0-14.76,3.43-19.07,10.29s-6.47,17.25-6.47,31.19c0,17.92,2.42,31.42,7.27,40.48c4.63,9.07,17.78,20.02,39.45,32.83
			c62.15,36.89,101.29,67.16,117.43,90.81c16.13,23.66,24.21,61.79,24.21,114.41c0,38.25-4.48,66.44-13.43,84.56
			c-8.95,18.13-26.26,33.33-51.9,45.6c-25.65,12.27-55.49,18.41-89.54,18.41c-37.37,0-69.26-7.08-95.67-21.22
			c-26.42-14.15-43.72-32.17-51.9-54.05c-8.18-21.89-12.27-52.95-12.27-93.18v-35.15h129.66v65.33c0,20.12,1.82,33.05,5.47,38.8
			c3.65,5.75,10.12,8.62,19.4,8.62s16.19-3.65,20.73-10.94c4.53-7.3,6.8-18.12,6.8-32.5c0-31.61-4.31-52.28-12.93-62.01
			c-8.85-9.73-30.62-25.98-65.33-48.75c-34.71-22.99-57.7-39.68-68.98-50.07c-11.28-10.39-20.62-24.76-28.02-43.11
			c-7.41-18.35-11.11-41.78-11.11-70.3c0-41.12,5.25-71.18,15.75-90.2c10.5-19.01,27.47-33.88,50.9-44.6
			c23.43-10.72,51.73-16.08,84.89-16.08c36.25,0,67.15,5.86,92.69,17.58c25.54,11.72,42.45,26.48,50.74,44.27
			c8.29,17.8,12.44,48.03,12.44,90.7V971.12z"/>
	</g>
	<g>
		<path d="M1331.17,699.89c2.23-3.91,5.28-6.96,9.14-9.14c3.86-2.18,8.2-3.28,13-3.28c5.62,0,10.54,1.44,14.76,4.32
			c4.22,2.88,7.17,6.86,8.86,11.95h-11.59c-1.15-2.4-2.77-4.2-4.86-5.4c-2.09-1.2-4.5-1.8-7.24-1.8c-2.93,0-5.53,0.68-7.81,2.05
			c-2.28,1.37-4.06,3.3-5.33,5.8c-1.27,2.5-1.91,5.42-1.91,8.78c0,3.31,0.63,6.23,1.91,8.75c1.27,2.52,3.05,4.46,5.33,5.83
			c2.28,1.37,4.88,2.05,7.81,2.05c2.74,0,5.15-0.61,7.24-1.84c2.09-1.22,3.71-3.04,4.86-5.44h11.59c-1.68,5.14-4.62,9.13-8.82,11.99
			c-4.2,2.86-9.13,4.28-14.8,4.28c-4.8,0-9.13-1.09-13-3.28c-3.87-2.18-6.91-5.22-9.14-9.11c-2.23-3.89-3.35-8.3-3.35-13.25
			C1327.82,708.24,1328.94,703.81,1331.17,699.89z"/>
		<path d="M1416.38,728.8h-20.02l-3.31,9.58h-10.58l18.07-50.33h11.74l18.07,50.33h-10.66L1416.38,728.8z M1413.65,720.74
			l-7.27-21.02l-7.27,21.02H1413.65z"/>
		<path d="M1463.04,738.38l-11.09-19.58h-4.75v19.58h-10.08v-50.26h18.86c3.89,0,7.2,0.68,9.94,2.05c2.74,1.37,4.79,3.22,6.16,5.54
			c1.37,2.33,2.05,4.93,2.05,7.81c0,3.31-0.96,6.3-2.88,8.96c-1.92,2.66-4.78,4.5-8.57,5.51l12.02,20.38H1463.04z M1447.2,711.23
			h8.42c2.74,0,4.78-0.66,6.12-1.98c1.34-1.32,2.02-3.16,2.02-5.51c0-2.3-0.67-4.09-2.02-5.36c-1.34-1.27-3.38-1.91-6.12-1.91h-8.42
			V711.23z"/>
		<path d="M1518.01,711.23c-1.27,2.35-3.26,4.25-5.98,5.69s-6.13,2.16-10.26,2.16h-8.42v19.3h-10.08v-50.26h18.5
			c3.89,0,7.2,0.67,9.94,2.02c2.74,1.34,4.79,3.19,6.16,5.54c1.37,2.35,2.05,5.02,2.05,7.99
			C1519.92,706.36,1519.28,708.88,1518.01,711.23z M1507.53,709.04c1.34-1.27,2.02-3.06,2.02-5.36c0-4.9-2.74-7.34-8.21-7.34h-7.99
			v14.62h7.99C1504.12,710.95,1506.19,710.31,1507.53,709.04z"/>
		<path d="M1537.12,696.26v12.6h16.92v7.99h-16.92v13.32h19.08v8.21h-29.16v-50.33h29.16v8.21H1537.12z"/>
		<path d="M1599.55,688.12v8.14h-13.39v42.12h-10.08v-42.12h-13.39v-8.14H1599.55z"/>
		<path d="M1649.95,738.38l-11.09-19.58h-4.75v19.58h-10.08v-50.26h18.86c3.89,0,7.2,0.68,9.94,2.05c2.74,1.37,4.79,3.22,6.16,5.54
			c1.37,2.33,2.05,4.93,2.05,7.81c0,3.31-0.96,6.3-2.88,8.96c-1.92,2.66-4.78,4.5-8.57,5.51l12.02,20.38H1649.95z M1634.11,711.23
			h8.42c2.74,0,4.78-0.66,6.12-1.98c1.34-1.32,2.02-3.16,2.02-5.51c0-2.3-0.67-4.09-2.02-5.36c-1.34-1.27-3.38-1.91-6.12-1.91h-8.42
			V711.23z"/>
		<path d="M1680.26,696.26v12.6h16.92v7.99h-16.92v13.32h19.08v8.21h-29.16v-50.33h29.16v8.21H1680.26z"/>
		<path d="M1743.22,711.23c-1.27,2.35-3.26,4.25-5.98,5.69c-2.71,1.44-6.13,2.16-10.26,2.16h-8.42v19.3h-10.08v-50.26h18.5
			c3.89,0,7.2,0.67,9.94,2.02c2.74,1.34,4.79,3.19,6.16,5.54c1.37,2.35,2.05,5.02,2.05,7.99
			C1745.13,706.36,1744.49,708.88,1743.22,711.23z M1732.75,709.04c1.34-1.27,2.02-3.06,2.02-5.36c0-4.9-2.74-7.34-8.21-7.34h-7.99
			v14.62h7.99C1729.34,710.95,1731.4,710.31,1732.75,709.04z"/>
		<path d="M1783.07,728.8h-20.02l-3.31,9.58h-10.58l18.07-50.33h11.74l18.07,50.33h-10.66L1783.07,728.8z M1780.34,720.74
			l-7.27-21.02l-7.27,21.02H1780.34z"/>
		<path d="M1813.89,688.12v50.26h-10.08v-50.26H1813.89z"/>
		<path d="M1849.74,738.38l-11.09-19.58h-4.75v19.58h-10.08v-50.26h18.86c3.89,0,7.2,0.68,9.94,2.05c2.74,1.37,4.79,3.22,6.16,5.54
			c1.37,2.33,2.05,4.93,2.05,7.81c0,3.31-0.96,6.3-2.88,8.96c-1.92,2.66-4.78,4.5-8.57,5.51l12.02,20.38H1849.74z M1833.9,711.23
			h8.42c2.74,0,4.78-0.66,6.12-1.98c1.34-1.32,2.02-3.16,2.02-5.51c0-2.3-0.67-4.09-2.02-5.36c-1.34-1.27-3.38-1.91-6.12-1.91h-8.42
			V711.23z"/>
	</g>
</g>
</svg>
